<?xml version="1.0" encoding="utf-8"?>
<!-- Generator: Adobe Illustrator 19.0.0, SVG Export Plug-In . SVG Version: 6.00 Build 0)  -->
<svg version="1.1" id="Layer_1" xmlns="http://www.w3.org/2000/svg" xmlns:xlink="http://www.w3.org/1999/xlink" x="0px" y="0px"
	 viewBox="0 0 48.6 67.1" style="enable-background:new 0 0 48.6 67.1;" xml:space="preserve">
<style type="text/css">
	.st0{fill:#FFFFFF;}
	.st1{fill:#FDAF19;}
	.st2{fill:#DEE0E2;}
</style>
<path d="M44.6,34.9c0,0-3.2-8.1-7.8-9c-0.1,0-0.2,0-0.3-0.1c1.9-2.7,3.1-6,3.1-9.7C39.6,7.2,32.7,0,24.1,0C15.5,0,8.6,7.2,8.6,16.1
	c0,3.7,1.2,7,3.2,9.7c-4.6,0.9-7.8,9-7.8,9c-3.7,8.9-5,16.8-3,17.6c0.9,0.4,2.3-0.7,3.9-2.7c2.7,8.5,10.3,14.7,19.2,14.7
	c9,0,16.7-6.3,19.3-15c1.7,2.2,3.2,3.4,4.2,3C49.6,51.6,48.3,43.7,44.6,34.9z"/>
<path class="st0" d="M31.4,24.8c2-0.7,4.4-2,5-4.5c1.1-4.4-0.4-10.1-3-10s-4,2.1-4.1,5.3c-0.1,3.1,0.9,6.8-5,6.9
	c-5.9-0.1-4.8-3.8-5-6.9c-0.1-3.2-1.5-5.2-4.1-5.3s-4.1,5.6-3,10c0.6,2.5,3,3.8,5,4.5c-5.9,3-10.1,9.5-10.1,17.2
	c0,10.4,7.7,18.9,17.2,18.9S41.4,52.4,41.4,42C41.4,34.3,37.3,27.8,31.4,24.8z"/>
<path d="M16.7,15.1c0,0,0.4-0.7,0.7-1.3c-0.2-0.1-0.4-0.1-0.7-0.1c-1,0-1.8,0.8-1.8,1.8s0.8,1.8,1.8,1.8s1.8-0.8,1.8-1.8
	c0-0.3-0.1-0.6-0.2-0.9L16.7,15.1z"/>
<path d="M31.9,15.1c0,0,0.4-0.7,0.7-1.3c-0.2-0.1-0.4-0.1-0.7-0.1c-1,0-1.8,0.8-1.8,1.8s0.8,1.8,1.8,1.8c1,0,1.8-0.8,1.8-1.8
	c0-0.3-0.1-0.6-0.2-0.9L31.9,15.1z"/>
<path class="st1" d="M26.5,17.5c0.5,0.3,0.5,0.9,0.2,1.3l-1.8,2c-0.4,0.4-1,0.4-1.3,0c-0.5-0.6-1.2-1.4-1.8-2
	c-0.4-0.4-0.3-1.1,0.2-1.3c0.5-0.3,1.3-0.6,2.3-0.6S26,17.2,26.5,17.5z"/>
<path class="st1" d="M20.3,66.4c0,0.6-0.4,0.8-0.8,0.4l-2.4-1.6l-1.2,1.6c-0.3,0.4-0.9,0.4-1.2,0c-0.5-0.7-1.2-1.6-1.2-1.6L11,66.8
	c-0.5,0.3-0.8,0.1-0.8-0.4c0.3-6.5,5.1-6,5.1-6S20.1,59.8,20.3,66.4z"/>
<path class="st1" d="M38.5,66.4c0,0.6-0.4,0.8-0.8,0.4l-2.4-1.6L34,66.8c-0.3,0.4-0.9,0.4-1.2,0c-0.5-0.7-1.2-1.6-1.2-1.6l-2.4,1.6
	c-0.5,0.3-0.8,0.1-0.8-0.4c0.3-6.5,5.1-6,5.1-6S38.2,59.8,38.5,66.4z"/>
<g>
	<g>
		<path class="st2" d="M21.3,58.3c-4.4-1.5-8.2-3.5-11.1-5.8c3.1,5,8.3,8.4,14.3,8.4c1.7,0,3.3-0.3,4.8-0.8
			C26.7,59.7,24,59.2,21.3,58.3z"/>
	</g>
</g>
</svg>
