<?xml version="1.0" encoding="utf-8"?>
<!-- Generator: Adobe Illustrator 19.0.0, SVG Export Plug-In . SVG Version: 6.00 Build 0)  -->
<svg version="1.1" id="Layer_1" xmlns="http://www.w3.org/2000/svg" xmlns:xlink="http://www.w3.org/1999/xlink" x="0px" y="0px"
	 viewBox="0 0 32.3 67.1" style="enable-background:new 0 0 32.3 67.1;" xml:space="preserve">
<style type="text/css">
	.st0{fill:#FFFFFF;}
	.st1{clip-path:url(#SVGID_2_);}
	.st2{fill:#FDAF19;}
	.st3{fill:none;stroke:#000000;stroke-miterlimit:10;}
</style>
<g>
	<circle class="st0" cx="16.2" cy="16" r="15.5"/>
	<g>
		<g>
			<defs>
				<circle id="SVGID_1_" cx="16.2" cy="16" r="15.5"/>
			</defs>
			<clipPath id="SVGID_2_">
				<use xlink:href="#SVGID_1_"  style="overflow:visible;"/>
			</clipPath>
			<path class="st1" d="M-4.2,35.3c0,0,3.2-8.1,7.8-9c-2-2.7-3.2-6.1-3.2-9.7C0.5,7.7,7.4,0.5,16,0.5c8.6,0,15.5,7.2,15.5,16.1
				c0,3.6-1.2,7-3.1,9.7c0.1,0,0.2,0,0.3,0.1c4.6,0.9,7.8,9,7.8,9H-4.2z M33.3,42.4c0-7.6-4.1-14.2-10.1-17.2c2-0.7,4.4-2,5-4.5
				c1.1-4.4-0.4-10.1-3-10c-2.6,0.1-4,2.1-4.1,5.3c-0.1,3.1,0.9,6.8-5,6.9c-5.9-0.1-4.8-3.8-5-6.9c-0.1-3.2-1.5-5.3-4.1-5.3
				c-2.6-0.1-4.1,5.6-3,10c0.6,2.5,3,3.8,5,4.5C3.1,28.2-1,34.8-1,42.4H33.3z M8.6,15.6c0,0,0.4-0.7,0.7-1.3
				c-0.2-0.1-0.4-0.1-0.7-0.1c-1,0-1.8,0.8-1.8,1.8s0.8,1.8,1.8,1.8s1.8-0.8,1.8-1.8c0-0.3-0.1-0.6-0.2-0.9L8.6,15.6z M23.7,15.6
				c0,0,0.4-0.7,0.7-1.3c-0.2-0.1-0.4-0.1-0.7-0.1c-1,0-1.8,0.8-1.8,1.8s0.8,1.8,1.8,1.8c1,0,1.8-0.8,1.8-1.8c0-0.3-0.1-0.6-0.2-0.9
				L23.7,15.6z"/>
		</g>
		<path class="st2" d="M18.4,17.9c0.5,0.3,0.5,0.9,0.2,1.3l-1.8,2c-0.4,0.4-1,0.4-1.3,0c-0.5-0.6-1.2-1.4-1.8-2
			c-0.4-0.4-0.3-1.1,0.2-1.3c0.5-0.3,1.3-0.6,2.3-0.6C17.1,17.3,17.9,17.6,18.4,17.9z"/>
	</g>
	<circle class="st3" cx="16.2" cy="16" r="15.5"/>
	<path d="M16.2,33.2c-5.1,0-9.7-2.1-12.5-5.9c8.5,13,12.5,39.9,12.5,39.9h0.2c0,0,4.2-27.7,12.9-40.5H29
		C26.2,30.8,21.5,33.2,16.2,33.2z"/>
</g>
</svg>
